:version 1.10
:name ASF
:units
  mass 1
  length 1
  angle deg
:documentation
  ASF file generated by Kaydara
:root
  axis xyz
  order  tx ty tz rx ry rz
  position 0 0 0
  orientation 0 0 0
:bonedata
  begin
    id 1
    name RightUpLegDummy
    direction -0.718183 -0.695806 0.00816078
    length 4.904
    axis 0 0 0 xyz
  end
  begin
    id 2
    name RightUpLeg
    direction -0.0736652 -0.994202 0.0783343
    length 17.4976
    axis -2.72909 -3.00389 -4.00133 xyz
    dof rx ry rz
  end
  begin
    id 3
    name RightLeg
    direction -0.0389037 -0.994596 -0.0962598
    length 16.5821
    axis 3.95836 -18.5909 -4.46993 xyz
    dof rx ry rz
  end
  begin
    id 4
    name RightFoot
    direction -0.311643 -0.412678 0.855906
    length 3.77069
    axis -1.99483 -18.8351 -3.27644 xyz
    dof rx ry rz
  end
  begin
    id 5
    name RightToes
    direction -0.317852 0.0389852 0.947339
    length 3.85082
    axis -2.00228 -18.1713 -3.25211 xyz
    dof rx ry rz
  end
  begin
    id 6
    name SpineDummy
    direction 8.3039e-015 1 4.44677e-016
    length 4.6813
    axis 0 0 0 xyz
  end
  begin
    id 7
    name Spine
    direction -0.000262373 0.999988 0.00493267
    length 10.1015
    axis -0.00246081 0.00062579 0.0150362 xyz
    dof rx ry rz
  end
  begin
    id 8
    name Spine1
    direction 0 0 0
    length 0
    axis -0.00349562 0.000650293 0.0196666 xyz
    dof rx ry rz
  end
  begin
    id 9
    name HEadDummy
    direction -0.000343232 0.999999 0.00123745
    length 3.43865
    axis -0.00349562 0.000650293 0.0196666 xyz
  end
  begin
    id 10
    name HEad
    direction -0.0461221 0.980933 0.188796
    length 5.12695
    axis -0.00351404 -7.04812 0.0199272 xyz
    dof rx ry rz
  end
  begin
    id 11
    name LeftShoulder1Dummy
    direction 0.998904 -0.0399089 -0.0244534
    length 3.5433
    axis -0.00349562 0.000650293 0.0196666 xyz
  end
  begin
    id 12
    name LeftShoulder1
    direction 0.99951 1.64443e-005 0.0312999
    length 4.05031
    axis -0.00349562 0.000650293 0.0196666 xyz
    dof rx ry rz
  end
  begin
    id 13
    name LeftArm
    direction 0.984791 0.0515299 0.165927
    length 12.9126
    axis -64.823 -10.7743 5.20463 xyz
    dof rx ry rz
  end
  begin
    id 14
    name LeftForeArm
    direction 0.984968 0.0534808 0.16425
    length 10.8596
    axis -30.0462 -7.70601 1.87451 xyz
    dof rx ry rz
  end
  begin
    id 15
    name LeftHand
    direction 0.975871 0.0289682 0.216418
    length 6.62295
    axis -20.1348 -6.98077 1.86072 xyz
    dof rx ry rz
  end
  begin
    id 16
    name RightShoulderDummy
    direction -0.998877 -0.0405946 -0.0244307
    length 3.5433
    axis -0.00349562 0.000650293 0.0196666 xyz
  end
  begin
    id 17
    name RightShoulder
    direction -0.998933 -0.0249743 -0.0388558
    length 4.05031
    axis -0.0205316 -4.02113 1.41395 xyz
    dof rx ry rz
  end
  begin
    id 18
    name RightArm
    direction -0.997559 0.068664 0.0127103
    length 12.9638
    axis -67.3882 1.84188 -6.15987 xyz
    dof rx ry rz
  end
  begin
    id 19
    name RightForeArm
    direction -0.991508 0.0912848 0.0926241
    length 10.8312
    axis -22.1975 3.41087 -4.28711 xyz
    dof rx ry rz
  end
  begin
    id 20
    name RightHand
    direction -0.989262 0.0600788 0.133232
    length 6.57864
    axis -12.2911 2.17515 -4.39675 xyz
    dof rx ry rz
  end
  begin
    id 21
    name LeftUpLegDummy
    direction 0.718183 -0.695806 0.00816078
    length 4.904
    axis 0 0 0 xyz
  end
  begin
    id 22
    name LeftUpLeg
    direction 0.0831398 -0.99469 0.0606531
    length 17.4976
    axis -1.71016 2.29552 4.63832 xyz
    dof rx ry rz
  end
  begin
    id 23
    name LeftLeg
    direction 0.0498442 -0.991778 -0.117862
    length 16.5821
    axis 5.13757 15.5727 5.13348 xyz
    dof rx ry rz
  end
  begin
    id 24
    name LeftFoot
    direction 0.269026 -0.433896 0.85986
    length 3.77069
    axis -0.576502 15.6961 4.10267 xyz
    dof rx ry rz
  end
  begin
    id 25
    name LeftToes
    direction 0.277311 0.0251143 0.960452
    length 3.85048
    axis -0.576502 15.6961 4.10267 xyz
    dof rx ry rz
  end
:hierarchy
  begin
    root RightUpLegDummy SpineDummy LeftUpLegDummy
    RightUpLegDummy RightUpLeg
    RightUpLeg RightLeg
    RightLeg RightFoot
    RightFoot RightToes
    SpineDummy Spine
    Spine Spine1
    Spine1 HEadDummy LeftShoulder1Dummy RightShoulderDummy
    HEadDummy HEad
    LeftShoulder1Dummy LeftShoulder1
    LeftShoulder1 LeftArm
    LeftArm LeftForeArm
    LeftForeArm LeftHand
    RightShoulderDummy RightShoulder
    RightShoulder RightArm
    RightArm RightForeArm
    RightForeArm RightHand
    LeftUpLegDummy LeftUpLeg
    LeftUpLeg LeftLeg
    LeftLeg LeftFoot
    LeftFoot LeftToes
  end

:SAMPLES-PER-SECOND 30
:FULLY-SPECIFIED
:DEGREES
123
root  3.96795 18.7863 -70.2541 45.0683 2.28016 -2.82636
RightUpLeg  -55.503 -9.65449 23.0257
RightLeg  121.669 21.0571 -8.29171
RightFoot  -40.1752 1.60961 6.13229
RightToes  5.82077e-011 -3.18055e-015 -2.98177e-016
Spine  43.9851 1.24602 7.10679
Spine1  -2.4082 3.40361 6.36606
HEad  -29.7529 -4.05692 0.165991
LeftShoulder1  -3.88251e-019 9.70628e-020 -3.87848e-018
LeftArm  -4.27606 -22.1028 -72.0013
LeftForeArm  18.1743 -5.07267 -6.44997
LeftHand  -12.9603 -11.7488 76.6222
RightShoulder  5.03582 9.65582 23.9342
RightArm  3.85928 9.10069 51.0145
RightForeArm  19.7152 15.5973 -8.21395
RightHand  -12.8708 10.6202 -78.2427
LeftUpLeg  -46.3277 -2.1342 7.75268
LeftLeg  112.788 -18.3105 10.6897
LeftFoot  -46.9041 -6.39351 -20.4054
LeftToes  1.39127e-010 -3.60802e-011 -7.31315e-011
124
root  3.7661 18.732 -70.1555 46.5821 0.953549 -3.04794
RightUpLeg  -56.5366 -7.97849 23.1821
RightLeg  121.055 21.2588 -8.7637
RightFoot  -40.5051 1.85657 7.06379
RightToes  5.82077e-011 -3.18055e-015 -2.98177e-016
Spine  43.111 2.54673 5.96621
Spine1  -2.67751 4.33777 5.45602
HEad  -29.9141 -5.16908 0.448619
LeftShoulder1  -3.88251e-019 9.70628e-020 -3.87848e-018
LeftArm  -4.19612 -22.368 -72.5335
LeftForeArm  18.9711 -5.56981 -6.5086
LeftHand  -13.0212 -11.7183 76.9878
RightShoulder  5.25337 9.75615 24.9797
RightArm  4.20314 7.12818 49.4014
RightForeArm  18.0616 18.5409 -10.32
RightHand  -12.6185 10.5522 -77.3607
LeftUpLeg  -47.1767 -0.46396 7.34479
LeftLeg  112.193 -18.3047 10.9339
LeftFoot  -46.703 -6.26689 -20.1255
LeftToes  1.39127e-010 -3.60802e-011 -7.31315e-011
125
root  3.5375 18.7064 -70.0078 48.1495 -0.929796 -3.48316
RightUpLeg  -57.2655 -5.66995 22.7952
RightLeg  120.29 21.1711 -8.86276
RightFoot  -41.0013 2.08396 7.84363
RightToes  5.82077e-011 -3.18055e-015 -2.98177e-016
Spine  42.0264 4.29295 4.17436
Spine1  -2.79574 5.47883 4.72165
HEad  -30.1568 -6.28013 0.467557
LeftShoulder1  -3.88251e-019 9.70628e-020 -3.87848e-018
LeftArm  -4.68638 -22.3557 -73.211
LeftForeArm  20.1854 -6.16727 -6.249
LeftHand  -13.0448 -11.7724 76.9083
RightShoulder  5.48087 9.88923 26.0026
RightArm  5.38567 4.77354 47.3969
RightForeArm  15.0967 22.4492 -12.7082
RightHand  -12.1684 10.5656 -75.2711
LeftUpLeg  -47.8276 1.62947 6.75131
LeftLeg  111.239 -18.2498 11.2454
LeftFoot  -45.7192 -5.83506 -19.3306
LeftToes  1.39127e-010 -3.60802e-011 -7.31315e-011
126
root  3.29451 18.7609 -69.832 49.1344 -2.97431 -3.83983
RightUpLeg  -57.2272 -3.48799 21.9495
RightLeg  119.393 20.9634 -8.81687
RightFoot  -41.4233 2.11843 7.8513
RightToes  5.82077e-011 -3.18055e-015 -2.98177e-016
Spine  41.5473 5.8932 1.7937
Spine1  -3.32384 6.2783 4.29823
HEad  -30.5607 -6.80887 0.296219
LeftShoulder1  -3.88251e-019 9.70628e-020 -3.87848e-018
LeftArm  -5.28243 -22.0036 -73.1983
LeftForeArm  21.3357 -6.48659 -6.11236
LeftHand  -13.2259 -11.9737 77.0124
RightShoulder  5.52295 9.94223 26.1336
RightArm  5.77337 1.75027 46.6307
RightForeArm  11.9915 26.3798 -14.6766
RightHand  -11.6286 10.732 -72.1935
LeftUpLeg  -48.1904 3.39244 6.07543
LeftLeg  110.508 -18.1191 11.3068
LeftFoot  -43.7332 -5.16341 -18.2546
LeftToes  1.39127e-010 -3.60802e-011 -7.31315e-011
127
root  3.06252 18.8815 -69.6443 49.28 -4.59722 -3.68345
RightUpLeg  -56.4871 -2.27987 20.834
RightLeg  118.437 20.7433 -8.76013
RightFoot  -41.7188 2.07683 7.59904
RightToes  5.82077e-011 -3.18055e-015 -2.98177e-016
Spine  41.8885 6.82033 -0.579343
Spine1  -4.19743 6.37563 4.07448
HEad  -31.0211 -6.7736 0.342236
LeftShoulder1  -3.88251e-019 9.70628e-020 -3.87848e-018
LeftArm  -5.5085 -21.7351 -72.4931
LeftForeArm  22.1892 -6.00272 -6.31244
LeftHand  -13.5189 -12.1855 77.5497
RightShoulder  5.4082 9.91883 25.5401
RightArm  5.56869 -0.957632 47.5207
RightForeArm  9.5416 29.366 -16.2249
RightHand  -11.2554 10.8136 -70.1457
LeftUpLeg  -48.7542 4.04865 5.24769
LeftLeg  111.03 -18.2416 11.3279
LeftFoot  -40.503 -4.21312 -16.6946
LeftToes  1.39127e-010 -3.60802e-011 -7.31315e-011
128
root  2.89456 18.986 -69.4575 48.7409 -5.12788 -2.79642
RightUpLeg  -55.2459 -2.66658 19.8097
RightLeg  117.639 20.5439 -8.67727
RightFoot  -42.1481 2.03487 7.31335
RightToes  5.82077e-011 -3.18055e-015 -2.98177e-016
Spine  42.6714 6.69144 -1.87088
Spine1  -4.82237 5.75785 3.77309
HEad  -31.3696 -6.63979 0.739926
LeftShoulder1  -3.88251e-019 9.70628e-020 -3.87848e-018
LeftArm  -5.41931 -21.7567 -71.813
LeftForeArm  22.8573 -5.00139 -6.57818
LeftHand  -13.6933 -12.2539 78.0507
RightShoulder  5.34455 9.90485 25.2114
RightArm  5.01365 -1.73741 48.7145
RightForeArm  9.43081 31.8436 -17.6816
RightHand  -11.2285 10.7843 -70.1076
LeftUpLeg  -50.0161 3.26576 4.25965
LeftLeg  113.298 -19.051 11.895
LeftFoot  -37.1995 -3.14849 -14.1801
LeftToes  1.39127e-010 -3.60802e-011 -7.31315e-011
129
root  2.82561 19.0089 -69.2855 47.8617 -4.78357 -1.57446
RightUpLeg  -53.7139 -4.14087 18.9805
RightLeg  117.19 20.3798 -8.53703
RightFoot  -42.8573 2.06585 7.23669
RightToes  5.82077e-011 -3.18055e-015 -2.98177e-016
Spine  43.6309 5.67253 -1.82583
Spine1  -5.23922 4.7651 2.96533
HEad  -31.4307 -6.55633 1.1857
LeftShoulder1  -3.88251e-019 9.70628e-020 -3.87848e-018
LeftArm  -5.45676 -21.4899 -71.372
LeftForeArm  23.5092 -4.47258 -6.6137
LeftHand  -13.7143 -12.2306 78.213
RightShoulder  5.3387 9.89992 25.1882
RightArm  4.17117 -0.286338 49.5439
RightForeArm  11.5251 34.4024 -19.3907
RightHand  -11.3287 10.9415 -70.0742
LeftUpLeg  -51.8305 1.84897 3.0595
LeftLeg  116.48 -20.8337 13.5453
LeftFoot  -35.7423 -2.13624 -10.1918
LeftToes  1.39127e-010 -3.60802e-011 -7.31315e-011
130
root  2.81232 18.9938 -69.1001 46.8741 -4.82247 -0.540358
RightUpLeg  -52.0035 -5.30349 17.8421
RightLeg  116.958 20.2231 -8.33809
RightFoot  -43.6182 2.15898 7.3787
RightToes  5.82077e-011 -3.18055e-015 -2.98177e-016
Spine  44.9486 4.56702 -1.57297
Spine1  -6.1673 3.85546 1.23418
HEad  -31.138 -6.35899 1.56731
LeftShoulder1  -3.88251e-019 9.70628e-020 -3.87848e-018
LeftArm  -5.73121 -20.3915 -70.8066
LeftForeArm  24.2282 -4.85134 -6.50457
LeftHand  -13.7563 -12.2576 78.2975
RightShoulder  5.19318 9.81225 24.5344
RightArm  2.63735 2.60622 50.7997
RightForeArm  13.9215 36.1757 -20.6971
RightHand  -11.0868 11.2824 -67.7984
LeftUpLeg  -53.6516 1.10018 1.24015
LeftLeg  119.555 -23.1967 15.6294
LeftFoot  -36.9527 -1.55505 -6.87166
LeftToes  1.39127e-010 -3.60802e-011 -7.31315e-011
131
root  2.77674 19.0265 -68.8357 45.7237 -6.06467 0.269061
RightUpLeg  -50.0072 -5.43673 15.8674
RightLeg  116.615 19.9843 -8.02408
RightFoot  -44.1422 2.2358 7.51761
RightToes  5.82077e-011 -3.18055e-015 -2.98177e-016
Spine  46.8357 4.05539 -2.12165
Spine1  -7.71132 3.2751 -1.38645
HEad  -30.7576 -6.16724 2.18925
LeftShoulder1  -3.88251e-019 9.70628e-020 -3.87848e-018
LeftArm  -5.78535 -18.9159 -70.1615
LeftForeArm  24.9947 -5.47348 -6.49681
LeftHand  -13.8705 -12.3428 78.4877
RightShoulder  4.85695 9.58795 23.0331
RightArm  0.606533 6.76316 52.6178
RightForeArm  14.9338 35.7349 -20.4282
RightHand  -10.2611 11.2645 -63.7826
LeftUpLeg  -55.2016 1.38445 -1.57437
LeftLeg  122.432 -25.2445 16.8428
LeftFoot  -39.4349 -1.70896 -6.82542
LeftToes  1.39127e-010 -3.60802e-011 -7.31315e-011
132
root  2.70955 19.082 -68.4904 44.2638 -8.25163 0.767664
RightUpLeg  -47.5166 -4.72587 13.3323
RightLeg  116.157 19.6647 -7.58773
RightFoot  -44.4465 2.2574 7.51344
RightToes  5.82077e-011 -3.18055e-015 -2.98177e-016
Spine  48.9812 4.19606 -3.12138
Spine1  -9.15035 3.11978 -4.39726
HEad  -30.6827 -6.32103 3.15354
LeftShoulder1  -3.88251e-019 9.70628e-020 -3.87848e-018
LeftArm  -5.40063 -17.912 -69.839
LeftForeArm  25.7764 -5.55182 -6.59247
LeftHand  -13.9786 -12.4055 78.7237
RightShoulder  4.45585 9.24862 21.305
RightArm  -1.31772 12.2768 54.0326
RightForeArm  14.0949 33.1214 -18.67
RightHand  -9.02469 10.48 -59.7152
LeftUpLeg  -56.5681 2.45587 -4.89908
LeftLeg  124.875 -26.8756 17.4722
LeftFoot  -40.7344 -1.90213 -7.27139
LeftToes  1.39127e-010 -3.60802e-011 -7.31315e-011
133
root  2.6494 19.1094 -68.0812 42.5814 -10.9018 0.712708
RightUpLeg  -44.5374 -3.37418 10.8376
RightLeg  115.612 19.3452 -7.15495
RightFoot  -44.6257 2.27126 7.51503
RightToes  5.82077e-011 -3.18055e-015 -2.98177e-016
Spine  51.0802 4.70959 -3.901
Spine1  -10.204 3.39062 -7.6215
HEad  -30.8946 -6.86576 4.06889
LeftShoulder1  -3.88251e-019 9.70628e-020 -3.87848e-018
LeftArm  -4.93497 -17.2581 -69.8592
LeftForeArm  26.5899 -5.21374 -6.66273
LeftHand  -14.1177 -12.4475 79.1485
RightShoulder  4.05191 8.87947 19.5282
RightArm  -3.46552 18.1772 54.7417
RightForeArm  11.9878 29.5705 -16.4387
RightHand  -7.70932 9.24035 -55.9874
LeftUpLeg  -57.6795 4.22184 -7.8657
LeftLeg  126.532 -28.0918 17.913
LeftFoot  -41.6704 -1.84034 -6.77504
LeftToes  1.39127e-010 -3.60802e-011 -7.31315e-011
134
root  2.62879 19.1094 -67.6185 40.9045 -13.4756 -0.203006
RightUpLeg  -41.2171 -1.45817 9.09843
RightLeg  114.821 19.0244 -6.75636
RightFoot  -44.7332 2.322 7.6657
RightToes  5.82077e-011 -3.18055e-015 -2.98177e-016
Spine  53.3625 5.0922 -3.72678
Spine1  -11.4353 3.94533 -11.3877
HEad  -31.0631 -7.60359 4.68344
LeftShoulder1  -3.88251e-019 9.70628e-020 -3.87848e-018
LeftArm  -4.6788 -16.2902 -69.8377
LeftForeArm  27.5203 -5.0671 -6.77902
LeftHand  -14.3389 -12.4954 79.8777
RightShoulder  3.69448 8.65341 17.7127
RightArm  -6.70719 23.2912 55.2812
RightForeArm  9.96269 25.516 -14.0908
RightHand  -6.63733 8.07389 -52.8802
LeftUpLeg  -58.6235 6.44377 -9.44872
LeftLeg  127.422 -28.4269 17.7786
LeftFoot  -42.6777 -1.71899 -6.05004
LeftToes  1.39127e-010 -3.60802e-011 -7.31315e-011
